<?xml version="1.0" encoding="UTF-8"?>
<svg id="Layer_2" data-name="Layer 2" xmlns="http://www.w3.org/2000/svg" viewBox="0 0 893.6 609.37">
  <defs>
    <style>
      .cls-1 {
        fill: #dad8d7;
      }

      .cls-2 {
        fill: #252122;
      }

      .cls-3 {
        fill: #231f20;
      }

      .cls-4 {
        fill: #6c655f;
      }

      .cls-5 {
        fill: #f4f4f4;
      }

      .cls-6 {
        fill: #fa7a03;
      }

      .cls-7 {
        fill: #dad9d7;
      }

      .cls-8 {
        fill: #242020;
      }

      .cls-9 {
        fill: #f2f1f1;
      }

      .cls-10 {
        fill: #231f1f;
      }

      .cls-11 {
        fill: #fb9903;
      }

      .cls-12 {
        fill: #f3f3f3;
      }
    </style>
  </defs>
  <g id="Layer_2-2" data-name="Layer 2">
    <g id="Layer_1-2" data-name="Layer 1">
      <g>
        <polygon class="cls-5" points="260.59 441.06 210.84 394.52 297.48 297.65 298.62 297.65 426.87 425.29 427.42 537.01 260.59 441.06"/>
        <polygon class="cls-5" points="631.87 441.06 685.04 392.86 594.97 297.65 593.83 297.65 465.59 425.29 465.04 537.01 631.87 441.06"/>
        <path class="cls-8" d="M890.19,2.44c1.26-1.24.67-2.98,3.41-2.27-1.63,39.04-13.31,75.81-26.19,112.29-25.73,72.87-59.26,142.89-93.46,212.01l-79.27,42.68c-3.34,3.14-7.98,20.31-9.64,25.71-.38,1.25-90.07-95.21-90.07-95.21C693.02,198.91,791.15,100.18,890.19,2.44Z"/>
        <path class="cls-3" d="M2.27,1.3l295.21,296.35-86.65,96.88-2.26-.7-9.4-26.37-79.53-42.99c-28.81-57.47-56.2-115.85-79.47-175.85C21.66,100.89,2.75,51.91,0,.16,2.1-.48,1.99,1.17,2.27,1.3Z"/>
        <path class="cls-11" d="M447.94,222.42l145.9,75.23c-41.76,43.57-85.49,85.13-128.24,127.64l-.55,111.72c-.54,1.5-.03,4.95-1.14,6.84-4.43-.85-29.48-.75-34.19,0-1.44-2.12-1.07-4.47-1.14-6.84-1.15-36.8,1.32-73.79-.56-110.59l-39.93-38.67-89.45-90.09,147.04-75.23h2.28Z"/>
        <path class="cls-6" d="M890.19,2.44c-99.04,97.74-197.17,196.47-295.21,295.21h-1.14l-145.9-75.23L890.19,2.44Z"/>
        <path class="cls-6" d="M445.66,222.42l-147.04,75.23h-1.14L2.27,1.3c4.89,2.15,10.08,3.76,14.85,6.24l428.54,214.88Z"/>
        <path class="cls-1" d="M264.43,437.85c15.89-3.9,32.17-7.48,48.21-10.3,6.18,9.31,14.13,18.73,24.31,23.83,14.87,7.46,32.66,5.6,48.22,11.05l22.88,33.54c-.08.75.05,1.53,0,2.28l-33.05,61.55c-19.9-19.81-42.22-38.86-61.62-59.77l-88.83-51.37c13.15-3.93,26.55-7.55,39.89-10.82Z"/>
        <path class="cls-7" d="M630.31,437.85c.74.19,1.86,1.6,3.16,1.92,8.93,2.24,25.6,4.72,33.02,8.07,1.54.7,1.8.11,1.44,2.53-2.7.56-5.25,1.86-7.6,3.25-23.49,13.86-59.65,30.89-80.06,46.45-17.59,13.42-44.92,43.19-61.65,59.74l-33.05-60.41c.24-.65-.07-2.4,0-3.42l22.86-33.56c15.24-5.2,33.86-3.81,48.24-11.03,6.79-3.41,13.24-10.22,18.39-15.8,4.64-5.03,2.46-8.74,11.08-7.71,10.96,1.31,32.73,7.1,44.18,9.97Z"/>
        <path class="cls-4" d="M428.56,537.01c.07,2.37-.3,4.72,1.14,6.84-4.63.73-7.09,5.46-11.24,7.03-2.21,3.75,14.44,30.8,19.14,32.36,3.36,1.12,17.45,1,20.24-1,2.44-1.74,11.32-15.97,13.08-19.4,1.86-3.65,3.88-7.26,4.45-11.41-.11-.68-10.2-7.34-11.48-7.58,1.11-1.88.6-5.34,1.14-6.84,4.08-11.29,16.63-27.22,20.52-37.61l33.05,60.41c-.21.21-.4,2.23-1.63,3.45-15.69,15.5-30.95,31.43-47.4,46.12h-46.69c-15.41-15.38-30.82-30.76-46.26-46.12-1.22-1.22-1.42-3.24-1.63-3.45l33.05-61.55,20.52,38.75Z"/>
        <path class="cls-2" d="M630.31,437.85c-11.45-2.87-33.22-8.66-44.18-9.97-8.63-1.03-6.45,2.68-11.08,7.71-5.16,5.58-11.61,12.4-18.39,15.8-14.38,7.22-33,5.83-48.24,11.03l-22.86,33.56c.86-12.62-2.2-28.03-1.18-41.65,2.6-34.65,33.84-56,66.77-56.4,31.89-.39,53.97,24.15,79.17,39.92ZM512.91,426.44c2,.26,3.77-.08,5.7-.56,4.76-1.18,29.3-7.09,30.86-9.03,3.8-4.7-3.66-6.35-7.5-6.35-10.07,0-23.51,7.51-29.07,15.93Z"/>
        <path class="cls-2" d="M408.05,495.98l-22.88-33.54c-15.56-5.45-33.34-3.59-48.22-11.05-10.19-5.11-18.13-14.52-24.31-23.83-16.04,2.82-32.32,6.4-48.21,10.3,23.47-16.23,47.68-40.51,78.05-39.89,61.52,1.24,70.89,46.61,65.56,98.02ZM381.82,428.73c-2.03-10.63-20.53-18.17-30.2-18-3.84.07-9.93,1.69-6.35,6.13,4.1,5.07,30.3,5.24,36.55,11.87Z"/>
        <path class="cls-10" d="M429.7,543.85c4.71-.75,29.76-.85,34.19,0,1.28.24,11.37,6.91,11.48,7.58-.57,4.15-2.59,7.77-4.45,11.41-1.75,3.44-10.64,17.67-13.08,19.4-2.8,1.99-16.89,2.11-20.24,1-4.7-1.56-21.35-28.62-19.14-32.36,4.14-1.57,6.61-6.3,11.24-7.03Z"/>
        <path class="cls-12" d="M512.91,426.44c5.56-8.43,18.99-15.93,29.07-15.93,3.84,0,11.3,1.64,7.5,6.35-1.56,1.93-26.11,7.85-30.86,9.03-1.93.48-3.7.82-5.7.56Z"/>
        <path class="cls-9" d="M381.82,428.73c-6.26-6.64-32.46-6.8-36.55-11.87-3.58-4.43,2.51-6.06,6.35-6.13,9.68-.17,28.18,7.37,30.2,18Z"/>
      </g>
    </g>
  </g>
</svg>